HIERARCHY
ROOT Elbow
{
	OFFSET	0.00	0.00	0.00
	CHANNELS 6 Xposition Yposition Zposition Zrotation Xrotation Yrotation
	JOINT L_Wrist
	{
		OFFSET	 0.208349	 0.000000	 0.000000
		CHANNELS 3 Zrotation Xrotation Yrotation
		JOINT L_index_Proximal
		{
			OFFSET	 0.093499	 0.010637	-0.002084
			CHANNELS 3 Zrotation Xrotation Yrotation
			JOINT L_index_b
			{
				OFFSET	 0.033152	 0.000000	 0.000000
				CHANNELS 3 Zrotation Xrotation Yrotation
				JOINT L_index_c
				{
					OFFSET	 0.018651	 0.000000	 0.000000
					CHANNELS 3 Zrotation Xrotation Yrotation
					End Site
					{
						OFFSET	 0.018651	 0.000000	 0.000000
					}
				}
			}
		}
		JOINT L_middle_Proximal
		{
			OFFSET	 0.090632	-0.006115	-0.003750
			CHANNELS 3 Zrotation Xrotation Yrotation
			JOINT L_middle_b
			{
				OFFSET	 0.037194	 0.000000	 0.000000
				CHANNELS 3 Zrotation Xrotation Yrotation
				JOINT L_middle_c
				{
					OFFSET	 0.021943	 0.000000	 0.000000
					CHANNELS 3 Zrotation Xrotation Yrotation
					End Site
					{
						OFFSET	 0.021943	 0.000000	 0.000000
					}
				}
			}
		}
		JOINT L_pinky_Proximal
		{
			OFFSET	 0.074015	-0.035449	-0.000417
			CHANNELS 3 Zrotation Xrotation Yrotation
			JOINT L_pinky_b
			{
				OFFSET	 0.027285	 0.000000	 0.000000
				CHANNELS 3 Zrotation Xrotation Yrotation
				JOINT L_pinky_c
				{
					OFFSET	 0.015093	 0.000000	 0.000000
					CHANNELS 3 Zrotation Xrotation Yrotation
					End Site
					{
						OFFSET	 0.015093	 0.000000	 0.000000
					}
				}
			}
		}
		JOINT L_ring_Proximal
		{
			OFFSET	 0.082801	-0.021859	-0.003750
			CHANNELS 3 Zrotation Xrotation Yrotation
			JOINT L_ring_b
			{
				OFFSET	 0.034478	 0.000000	 0.000000
				CHANNELS 3 Zrotation Xrotation Yrotation
				JOINT L_ring_c
				{
					OFFSET	 0.021377	 0.000000	 0.000000
					CHANNELS 3 Zrotation Xrotation Yrotation
					End Site
					{
						OFFSET	 0.021377	 0.000000	 0.000000
					}
				}
			}
		}
		JOINT L_thumb_Proximal
		{
			OFFSET	 0.030306	 0.018528	 0.004584
			CHANNELS 3 Zrotation Xrotation Yrotation
			JOINT L_thumb_a
			{
				OFFSET	 0.038520	 0.000000	 0.000000
				CHANNELS 3 Zrotation Xrotation Yrotation
				JOINT L_thumb_b
				{
					OFFSET	 0.026310	 0.000000	 0.000000
					CHANNELS 3 Zrotation Xrotation Yrotation
					End Site
					{
						OFFSET	 0.026310	 0.000000	 0.000000
					}
				}
			}
		}
	}
}
MOTION
Frames:    15
Frame Time: 0.01666667
-0.134740	-0.114281	 0.719953	 59.235600	 29.782010	-178.698300	 9.465343	 4.504868	 26.540110	 8.761334	-4.759511	-46.641910	-0.497525	 0.257316	-54.695080	-0.048482	 0.012037	-27.866800	-8.378448	-9.323079	-57.986190	 0.825607	-0.591637	-71.251340	-1.121604	 0.414456	-40.559710	-29.371880	-18.597850	-52.676230	-0.861941	 0.549214	-65.008750	-0.164159	 0.083825	-54.096570	-18.714750	-11.491420	-61.477410	-0.017752	 0.013026	-72.512500	 1.034160	-0.436907	-45.804470	 73.076790	 39.302880	-63.103370	-4.142581	 0.441034	-12.148580	-4.589437	 2.072526	-48.588090
-0.134462	-0.114199	 0.719806	 59.188810	 29.839040	-178.662600	 9.477806	 4.507824	 26.558960	 8.878443	-4.821430	-46.646330	-0.383401	 0.197749	-54.567500	-0.027410	 0.006758	-27.695640	-8.317405	-9.356416	-57.584710	 0.936113	-0.669337	-71.130890	-1.092540	 0.403789	-40.566490	-29.351420	-18.607200	-52.749650	-0.978967	 0.624094	-65.033780	-0.245035	 0.125239	-54.147450	-18.781220	-11.445670	-61.658340	-0.114553	 0.084104	-72.569340	 1.025422	-0.433485	-45.830280	 73.313800	 39.220020	-62.978730	-4.038473	 0.424804	-12.004560	-4.438828	 2.009207	-48.690400
-0.134471	-0.114149	 0.719757	 59.174120	 29.857890	-178.650300	 9.485406	 4.509129	 26.567250	 8.927641	-4.845511	-46.629220	-0.384303	 0.198254	-54.576510	-0.028551	 0.007037	-27.689120	-8.305513	-9.361580	-57.425060	 0.936373	-0.669250	-71.107830	-1.120019	 0.414231	-40.592120	-29.363920	-18.600760	-52.737080	-1.014117	 0.646696	-65.049790	-0.255604	 0.130645	-54.144440	-18.802900	-11.430690	-61.672450	-0.139020	 0.102116	-72.599410	 1.008791	-0.426261	-45.812130	 73.360980	 39.186740	-62.979390	-4.048888	 0.426130	-12.011270	-4.433372	 2.008642	-48.730690
-0.134441	-0.114154	 0.719728	 59.162700	 29.898550	-178.628000	 9.495078	 4.510603	 26.576740	 8.944003	-4.854553	-46.633790	-0.369397	 0.190658	-54.599320	-0.021912	 0.005397	-27.696270	-8.327370	-9.346769	-57.374370	 0.907615	-0.648640	-71.103260	-1.110047	 0.410818	-40.617020	-29.378950	-18.592790	-52.731370	-1.047139	 0.667950	-65.065090	-0.269565	 0.137774	-54.141590	-18.826560	-11.414300	-61.718490	-0.160008	 0.117625	-72.637230	 1.004280	-0.424199	-45.797190	 73.386310	 39.150230	-63.008010	-4.050395	 0.426007	-12.003390	-4.423082	 2.001893	-48.686190
-0.134529	-0.114086	 0.719667	 59.136530	 29.931510	-178.617600	 9.502050	 4.511754	 26.584090	 8.967300	-4.864819	-46.614810	-0.373142	 0.192668	-54.618480	-0.012153	 0.002998	-27.715290	-8.344156	-9.334724	-57.289880	 0.886498	-0.633336	-71.085360	-1.124385	 0.416181	-40.622140	-29.396730	-18.583230	-52.729810	-1.071682	 0.683839	-65.083180	-0.283261	 0.144706	-54.123290	-18.849620	-11.398320	-61.729310	-0.170967	 0.125685	-72.643620	 0.989137	-0.417619	-45.779050	 73.407680	 39.141820	-62.998190	-4.070980	 0.428639	-12.016060	-4.420165	 2.001349	-48.702900
-0.134724	-0.114054	 0.719614	 59.072850	 29.944560	-178.602700	 9.499858	 4.512612	 26.589520	 8.972365	-4.865493	-46.595540	-0.415781	 0.214876	-54.659030	 0.036805	-0.009100	-27.771120	-8.367944	-9.316051	-57.056350	 0.809948	-0.577647	-70.991660	-1.207332	 0.447121	-40.641580	-29.443480	-18.554830	-52.867790	-1.160428	 0.742477	-65.223950	-0.269994	 0.137905	-54.110290	-18.908610	-11.357490	-61.749160	-0.195426	 0.143775	-72.682890	 0.974485	-0.411247	-45.760920	 73.351250	 39.194990	-62.977190	-4.192960	 0.445146	-12.115020	-4.435896	 2.011925	-48.776700
-0.134737	-0.114174	 0.719615	 59.041630	 29.940000	-178.597600	 9.483335	 4.512806	 26.590770	 8.990261	-4.872968	-46.577110	-0.433431	 0.224126	-54.688210	 0.047202	-0.011680	-27.805310	-8.357192	-9.321225	-56.943960	 0.772263	-0.549993	-70.914920	-1.203138	 0.445757	-40.657130	-29.455890	-18.547290	-52.903280	-1.135440	 0.726697	-65.238740	-0.252402	 0.128876	-54.096330	-18.904300	-11.360500	-61.727480	-0.184615	 0.135819	-72.682500	 0.970970	-0.409765	-45.760760	 73.335120	 39.233600	-62.935530	-4.248988	 0.453358	-12.174850	-4.420445	 2.011466	-48.917630
-0.134602	-0.114496	 0.719709	 58.971210	 29.970310	-178.585100	 9.454700	 4.504739	 26.539330	 8.865183	-4.826757	-46.766470	-0.454313	 0.235852	-54.869490	 0.019512	-0.004833	-27.825960	-8.384774	-9.301958	-56.824780	 0.792788	-0.564317	-70.887410	-1.154890	 0.428436	-40.706060	-29.477530	-18.535180	-52.920820	-1.079344	 0.690237	-65.196620	-0.189986	 0.096979	-54.085070	-18.900370	-11.363350	-61.631990	-0.136476	 0.100323	-72.639950	 0.993034	-0.418773	-45.730410	 73.261730	 39.312340	-62.893160	-4.322787	 0.466833	-12.321800	-4.419375	 2.015302	-49.010020
-0.134693	-0.114563	 0.719749	 58.956980	 29.971860	-178.566000	 9.454702	 4.504741	 26.539330	 8.865188	-4.826760	-46.766480	-0.454319	 0.235846	-54.869490	 0.019507	-0.004830	-27.825940	-8.384772	-9.301955	-56.824780	 0.792785	-0.564317	-70.887430	-1.154886	 0.428437	-40.706050	-29.477530	-18.535170	-52.920840	-1.079339	 0.690235	-65.196610	-0.189994	 0.096984	-54.085080	-18.900380	-11.363360	-61.631990	-0.136474	 0.100328	-72.639950	 0.993029	-0.418774	-45.730410	 73.261730	 39.312340	-62.893160	-4.322783	 0.466843	-12.321810	-4.419369	 2.015281	-49.010020
-0.134435	-0.114977	 0.719782	 58.860540	 29.882630	-178.519000	 9.400236	 4.498806	 26.501440	 8.698293	-4.773411	-47.109050	-0.539969	 0.281117	-55.004290	-0.024960	 0.006194	-27.873840	-8.426926	-9.276219	-56.895960	 0.723397	-0.514770	-70.870830	-1.132664	 0.419889	-40.679450	-29.504780	-18.521420	-52.880460	-1.063172	 0.680905	-65.273120	-0.139972	 0.071266	-53.965450	-18.915210	-11.353270	-61.530290	-0.120103	 0.088343	-72.676100	 0.933866	-0.393086	-45.654440	 73.290130	 39.316500	-62.856780	-4.326715	 0.467757	-12.334520	-4.449925	 2.022864	-48.874180
-0.134301	-0.115119	 0.719774	 58.797830	 29.780010	-178.496500	 9.371026	 4.498063	 26.496720	 8.688427	-4.779491	-47.221330	-0.589730	 0.307413	-55.063140	 0.022691	-0.005641	-27.910230	-8.432493	-9.272396	-56.875230	 0.753886	-0.536588	-70.883770	-1.136989	 0.422106	-40.733650	-29.544490	-18.500510	-52.858150	-1.064761	 0.682831	-65.342550	-0.138750	 0.070484	-53.866370	-18.923820	-11.347430	-61.481490	-0.127735	 0.094087	-72.746220	 0.904425	-0.380163	-45.596820	 73.308930	 39.337140	-62.805480	-4.336557	 0.469462	-12.351690	-4.444663	 2.019881	-48.861530
-0.134032	-0.115322	 0.719638	 58.697770	 29.592680	-178.457000	 9.290518	 4.495682	 26.481540	 8.580812	-4.740310	-47.401810	-0.589495	 0.306798	-54.988510	-0.035577	 0.008877	-28.018810	-8.481089	-9.242372	-56.937070	 0.757172	-0.539771	-70.968590	-1.226146	 0.455937	-40.794090	-29.600120	-18.469880	-52.880210	-1.146494	 0.737872	-65.529690	-0.233345	 0.118169	-53.714590	-18.975710	-11.311640	-61.497960	-0.170157	 0.125833	-72.966080	 0.868633	-0.363550	-45.421010	 73.354800	 39.266600	-62.864550	-4.229839	 0.454171	-12.251540	-4.520773	 2.038920	-48.534220
-0.133857	-0.115374	 0.719548	 58.650380	 29.536360	-178.443000	 9.238555	 4.493484	 26.467530	 8.560365	-4.730801	-47.415800	-0.600080	 0.312665	-55.043030	-0.051763	 0.012934	-28.063300	-8.502854	-9.228645	-56.945120	 0.762774	-0.544279	-71.019620	-1.227731	 0.456651	-40.804040	-29.616320	-18.461790	-52.854750	-1.169891	 0.753877	-65.594000	-0.242033	 0.122409	-53.656650	-18.994690	-11.298590	-61.490910	-0.156813	 0.116086	-73.024220	 0.870672	-0.364096	-45.386460	 73.347160	 39.267690	-62.870980	-4.205327	 0.450896	-12.234650	-4.469517	 2.013772	-48.491250
-0.133758	-0.115250	 0.719308	 58.596150	 29.463120	-178.427100	 9.163803	 4.485425	 26.416180	 8.530719	-4.711068	-47.376350	-0.669280	 0.349304	-55.120790	-0.083996	 0.021055	-28.148690	-8.470349	-9.247335	-56.799760	 0.740309	-0.527066	-70.897410	-1.279932	 0.476767	-40.859030	-29.654610	-18.441100	-52.853680	-1.179572	 0.760884	-65.647760	-0.248956	 0.125623	-53.549510	-19.030890	-11.273830	-61.426410	-0.124666	 0.092295	-73.024540	 0.858172	-0.358450	-45.339120	 73.246190	 39.301930	-62.925450	-4.173956	 0.446532	-12.207410	-4.429581	 1.980471	-48.161740
-0.133734	-0.115172	 0.719191	 58.586580	 29.435250	-178.422200	 9.141604	 4.480315	 26.383630	 8.502119	-4.688170	-47.298920	-0.746031	 0.389726	-55.164150	-0.088850	 0.022290	-28.166880	-8.448526	-9.259375	-56.669450	 0.729034	-0.518234	-70.814130	-1.323302	 0.493489	-40.901620	-29.670790	-18.431930	-52.870360	-1.176660	 0.759027	-65.648270	-0.252622	 0.127419	-53.529820	-19.045850	-11.263580	-61.409420	-0.116847	 0.086524	-73.034290	 0.850828	-0.355349	-45.334600	 73.179410	 39.364990	-62.899740	-4.172154	 0.446280	-12.205350	-4.414498	 1.969310	-48.066590
